HIERARCHY
ROOT Hips
{
  OFFSET -168.707 104.514 186.296
  CHANNELS 6 Xposition Yposition Zposition Zrotation Xrotation Yrotation
  JOINT ToSpine
  {
    OFFSET -2.69724 7.43032 -0.144315
    CHANNELS 3 Zrotation Xrotation Yrotation
    JOINT Spine
    {
      OFFSET -0.0310711 10.7595 1.96963
      CHANNELS 3 Zrotation Xrotation Yrotation
      JOINT Spine1
      {
        OFFSET 19.9056 3.91189 0.764692
        CHANNELS 3 Zrotation Xrotation Yrotation
        JOINT Neck
        {
          OFFSET 25.9749 7.03908 -0.130764
          CHANNELS 3 Zrotation Xrotation Yrotation
          JOINT Head
          {
            OFFSET 9.52751 0.295786 -0.907742
            CHANNELS 3 Zrotation Xrotation Yrotation
            End Site
            {
              OFFSET 16.4037 0.713936 2.7358
            }
          }
        }
        JOINT LeftShoulder
        {
          OFFSET 17.7449 4.33886 11.7777
          CHANNELS 3 Zrotation Xrotation Yrotation
          JOINT LeftArm
          {
            OFFSET 0.911315 1.27913 9.80584
            CHANNELS 3 Zrotation Xrotation Yrotation
            JOINT LeftForeArm
            {
              OFFSET 28.6126 1.18197 -3.53199
              CHANNELS 3 Zrotation Xrotation Yrotation
              JOINT LeftHand
              {
                OFFSET 27.5088 0.0218783 0.327423
                CHANNELS 3 Zrotation Xrotation Yrotation
                End Site
                {
                  OFFSET 18.6038 -0.000155887 0.382096
                }
              }
            }
          }
        }
        JOINT RightShoulder
        {
          OFFSET 17.1009 2.89543 -12.2328
          CHANNELS 3 Zrotation Xrotation Yrotation
          JOINT RightArm
          {
            OFFSET 1.4228 0.178766 -10.211
            CHANNELS 3 Zrotation Xrotation Yrotation
            JOINT RightForeArm
            {
              OFFSET 28.733 1.87905 2.64907
              CHANNELS 3 Zrotation Xrotation Yrotation
              JOINT RightHand
              {
                OFFSET 27.4588 0.290562 -0.101845
                CHANNELS 3 Zrotation Xrotation Yrotation
                End Site
                {
                  OFFSET 17.8396 -0.255518 -0.000602873
                }
              }
            }
          }
        }
      }
    }
  }
  JOINT LeftUpLeg
  {
    OFFSET -5.61296 -2.22332 -10.2353
    CHANNELS 3 Zrotation Xrotation Yrotation
    JOINT LeftLeg
    {
      OFFSET 2.56703 -44.7417 -7.93097
      CHANNELS 3 Zrotation Xrotation Yrotation
      JOINT LeftFoot
      {
        OFFSET 3.16933 -46.5642 -3.96578
        CHANNELS 3 Zrotation Xrotation Yrotation
        JOINT LeftToeBase
        {
          OFFSET 0.346054 -6.02161 12.8035
          CHANNELS 3 Zrotation Xrotation Yrotation
          End Site
          {
            OFFSET 0.134235 -1.35082 5.13018
          }
        }
      }
    }
  }
  JOINT RightUpLeg
  {
    OFFSET -5.7928 -1.72406 10.6446
    CHANNELS 3 Zrotation Xrotation Yrotation
    JOINT RightLeg
    {
      OFFSET -2.57161 -44.7178 -7.85259
      CHANNELS 3 Zrotation Xrotation Yrotation
      JOINT RightFoot
      {
        OFFSET -3.10148 -46.5936 -4.03391
        CHANNELS 3 Zrotation Xrotation Yrotation
        JOINT RightToeBase
        {
          OFFSET -0.0828122 -6.13587 12.8035
          CHANNELS 3 Zrotation Xrotation Yrotation
          End Site
          {
            OFFSET -0.131328 -1.35082 5.13018
          }
        }
      }
    }
  }
}
MOTION
Frames:	11
Frame Time:	0.0333333
265.215 107.796 -278.915 -73.5438 -45.6914 -167.318 -70.1915 0 88.8779 101.682 70.2714 -20.8715 -2.37683 18.8996 6.0088 -138.501 12.2316 168.364 -136.635 43.1399 150.586 2.2682 -3.54376 -31.4818 -104.739 47.3036 -89.1987 -6.91162 44.9183 0.583275 4.41412 0.0384535 2.42124 0.591364 -2.04338 41.7058 -81.7666 -41.7493 85.6236 -2.54769 -14.9229 13.1428 9.73145 -0.437982 -5.86233 -59.8797 -8.28812 92.459 3.12387 26.0259 -5.9512 10.3485 7.88019 -1.49492 -11.9243 -30.0969 3.32029 -43.2114 3.67095 84.3988 7.92358 68.8146 1.58571 -5.13596 24.0611 0.162972 -11.8757 -38.4569 -17.9182 
262.352 107.393 -276.503 -72.2545 -47.8508 -166.478 -70.1915 0 88.8779 99.161 69.8347 -20.0718 -2.30476 17.7598 6.94166 -141.616 13.8352 169.91 -141.183 46.4744 152.432 2.33758 -3.21419 -31.5659 -100.674 47.4605 -94.5264 -5.1582 41.8122 -3.77222 3.18632 0.0196395 2.05251 0.540742 -1.83916 42.2354 -82.0839 -41.4946 83.1473 -2.47078 -14.6032 13.2611 8.90826 -0.479063 -6.97607 -60.4539 -8.4724 93.7995 3.80481 28.3772 -9.0769 10.3336 5.22876 -1.44675 -11.4907 -29.2787 3.79682 -41.0322 2.15887 83.6303 4.21183 63.0967 -3.27032 -6.31022 3.21968 0.883336 -2.31227 -13.2448 -6.92817 
259.379 107.271 -273.957 -70.2103 -49.8857 -164.353 -70.1915 0 88.8779 95.6587 69.4551 -17.1317 -1.69525 16.9986 7.38286 -145.168 15.7026 169.66 -144.225 49.3263 152.029 2.28966 -3.30976 -31.0868 -95.7445 47.9015 -100.533 -2.89863 38.3068 -7.94061 3.71453 0.00405923 1.56811 0.591932 -1.99432 42.8816 -84.3617 -40.6581 80.624 -3.00202 -16.2074 12.1901 7.32878 -0.444395 -7.9459 -61.5845 -7.96993 94.2982 4.33906 29.0667 -12.1686 10.0262 3.95805 -1.37755 -11.1326 -29.0617 5.1356 -39.3756 1.3147 82.4884 2.29408 53.6964 -2.92818 -6.56461 1.72732 0.942385 -2.83738 -15.3122 -4.26738 
256.267 107.104 -271.305 -68.9811 -51.2141 -163.481 -70.1915 0 88.8779 92.9673 69.5023 -15.5136 -1.57155 16.7603 8.1523 -147.967 16.7462 167.375 -143.506 49.759 148.35 2.19503 -3.74668 -30.8923 -85.1154 46.7974 -109.636 0.654523 31.8606 -12.9334 2.39078 -0.00336067 1.18046 0.518216 -1.72368 43.2752 -85.8234 -40.8125 77.4548 -2.8842 -16.0295 12.2905 7.69845 -0.48386 -8.18544 -63.7633 -7.55315 94.9988 4.38497 28.7017 -14.2745 9.92479 2.85969 -1.34687 -11.2692 -29.9103 6.06316 -39.3496 0.605618 82.1752 1.30526 42.2599 -1.7367 -5.7537 1.35974 0.83936 -2.56025 -14.1032 -4.21385 
253.216 107.064 -268.617 -67.6316 -52.5716 -162.077 -70.1915 0 88.8779 91.8832 69.2317 -14.4754 -1.53108 16.5065 8.26837 -147.355 18.0156 168.759 -145.675 52.7364 153.927 2.21787 -3.5065 -30.509 -73.8361 44.2296 -119.149 3.09587 24.389 -16.2465 2.73943 -0.0290581 0.282897 0.618881 -2.07764 43.1246 -88.776 -40.5802 75.0439 -3.87482 -18.3143 10.5015 7.43381 -0.425492 -7.51243 -66.2361 -6.78335 95.2603 4.50303 27.6094 -16.3088 9.54232 2.49032 -1.28764 -11.9525 -31.3236 5.43017 -40.6265 0.354568 81.8927 0.88439 29.2498 -0.560487 -5.67361 0.75158 0.841923 -0.70391 -5.20188 -2.69915 
250.233 106.889 -265.927 -66.2969 -54.0876 -160.938 -70.1915 0 88.8779 90.2179 69.2191 -13.2446 -0.92055 16.348 8.70465 -140.582 17.1981 168.962 -144.486 53.6905 165.263 2.15298 -3.74495 -30.1482 -66.7074 41.9502 -125.683 4.84795 19.3434 -18.357 3.77449 -0.0460994 0.170597 0.808861 -2.79442 42.2647 -91.3251 -41.4233 72.4051 -3.28051 -19.6121 10.709 6.69177 -0.381649 -7.56276 -68.7163 -6.35997 94.9685 4.42723 26.6162 -18.0664 9.42895 2.99459 -1.27635 -12.7721 -33.1521 5.0219 -42.2732 0.627068 84.3189 0.11085 17.4614 -2.17195 -6.10203 0.909153 0.89401 -0.494267 -1.57237 1.60935 
247.169 106.561 -263.23 -65.0811 -55.4156 -159.694 -70.1915 0 88.8779 88.7915 68.9781 -11.7198 -0.34642 16.0683 8.73655 -142.724 17.27 169.917 -148.248 54.3584 166.902 2.16696 -3.6609 -30.1241 -62.9215 40.0695 -129.152 6.07986 16.852 -19.7236 4.79329 -0.068968 -0.0316111 0.64953 -2.13007 44.2895 -93.0701 -39.6994 69.7351 -3.04239 -18.8232 10.9357 6.29752 -0.368176 -7.79204 -70.6456 -5.73237 93.7413 4.28487 26.8762 -18.8709 8.76326 2.92077 -1.17893 -13.4989 -34.4439 4.22439 -42.7354 0.715022 85.1524 -0.970351 11.1758 -3.9788 -6.39217 -0.263322 0.949951 -0.661902 -4.15323 -0.988911 
244.023 105.895 -260.474 -64.8574 -56.3927 -159.055 -70.1915 0 88.8779 89.7234 68.7038 -12.3143 -0.200986 15.6924 9.08542 -144.166 17.5882 170.285 -149.031 54.6309 166.213 2.18588 -3.83793 -31.0373 -61.4481 38.3099 -130.15 6.63697 14.9605 -20.6039 3.97158 -0.0811939 -0.69249 0.688791 -2.2718 44.0728 -95.9713 -38.4021 68.976 -4.38292 -20.9473 8.34691 6.11341 -0.373637 -8.15447 -71.9816 -5.56014 89.575 3.81439 29.4898 -15.5292 7.87399 1.99513 -1.05327 -14.7367 -35.2351 0.884652 -42.8363 0.442998 84.7426 -0.5578 10.9124 -6.39143 -6.97948 -1.14064 1.02945 -0.791299 -5.54384 -2.51477 
240.921 105.273 -257.55 -64.9207 -56.1004 -158.57 -70.1915 0 88.8779 91.2319 68.3675 -11.9536 -0.5578 15.6677 8.19302 -143.111 17.491 170.056 -147.857 54.411 166.195 2.18194 -3.80145 -30.8442 -61.2768 38.8958 -129.377 7.18402 15.717 -20.8871 4.62158 -0.0946822 -0.687066 0.602512 -1.95621 44.7199 -96.638 -37.1874 69.6699 -5.51251 -22.4794 5.99716 5.92523 -0.37844 -8.534 -72.9702 -5.85462 82.6827 1.72091 32.5511 -7.18902 6.08833 0.961739 -0.827736 -15.7239 -34.2083 -4.50771 -41.8057 1.0276 84.1434 0.182964 15.5246 -7.35012 -6.84206 1.35382 0.984669 -0.121161 -1.13136 -0.727346 
237.827 105.029 -254.51 -65.4805 -55.7937 -158.122 -70.1915 0 88.8779 92.0463 68.029 -10.9138 0.302614 15.3342 8.49294 -142.891 17.3719 171.355 -145.169 53.5599 165.414 2.24386 -3.63779 -31.378 -61.7855 40.0491 -127.628 6.98267 16.0944 -20.6157 3.94435 -0.102666 -1.28297 0.589925 -1.96126 43.5187 -96.7247 -37.3927 71.2332 -6.36096 -23.3074 4.11964 6.42854 -0.400444 -8.25831 -74.5215 -5.85441 75.6287 -1.0046 34.532 1.80782 4.64871 2.53087 -0.59317 -17.6895 -32.9979 -14.0657 -40.6203 2.03718 83.4097 0.619237 21.0131 -6.08785 -5.65477 4.68828 0.753345 0.887102 3.82678 -1.22868 
234.666 104.592 -251.475 -66.8248 -54.3818 -156.957 -70.1915 0 88.8779 97.1751 67.5589 -11.2681 -0.050143 15.5676 7.62872 -144.468 17.7606 172.819 -147.079 54.1038 165.648 2.2825 -3.67316 -32.1646 -63.6383 41.3338 -123.963 5.75924 17.4495 -19.3875 5.11293 -0.0698564 0.0528477 0.579465 -1.93804 43.1987 -96.4094 -37.1846 72.3484 -6.38785 -24.1332 3.88003 7.09944 -0.477043 -8.78879 -73.3512 -2.54267 77.7039 -1.24083 40.2572 2.77784 2.8689 2.68394 -0.332956 -19.3508 -28.6597 -31.3938 -39.6946 5.08053 82.7227 0.767417 27.0006 -4.10627 -3.95186 5.78704 0.437552 0.0302709 3.28855 3.29359 
